<?xml version="1.0" encoding="UTF-8" standalone="no"?>
<!DOCTYPE svg PUBLIC "-//W3C//DTD SVG 1.1//EN" "http://www.w3.org/Graphics/SVG/1.1/DTD/svg11.dtd">
<svg version="1.1" xmlns="http://www.w3.org/2000/svg" xmlns:xlink="http://www.w3.org/1999/xlink" preserveAspectRatio="xMidYMid meet" viewBox="-0.18786199962965355 -0.8017934398006972 463.99956466615254 370.07284845904167" width="460" height="366.07"><defs><path d="M66.76 209.34C66.76 209.53 66.71 209.81 66.61 210.2C66.52 210.58 66.47 210.85 66.47 211.05C66.47 224.74 66.47 334.31 66.47 348C66.47 352.95 68.28 357.23 71.89 360.84C75.5 364.45 79.78 366.27 84.73 366.27C92.03 366.27 128.55 366.27 194.29 366.27L194.29 256.7L267.34 256.7L267.34 366.27C333.07 366.27 369.59 366.27 376.9 366.27C381.84 366.27 386.13 364.46 389.73 360.84C393.35 357.23 395.16 352.95 395.16 348C395.16 334.31 395.16 224.74 395.16 211.05C395.16 210.29 395.06 209.72 394.88 209.34C383.94 200.33 329.25 155.24 230.81 74.1C132.38 155.24 77.69 200.33 66.76 209.34Z" id="a2AadbN45"></path><path d="M395.16 126.6C395.16 56.75 395.16 17.95 395.16 10.19C395.16 7.53 394.3 5.34 392.58 3.62C390.88 1.91 388.69 1.06 386.03 1.06C380.55 1.06 336.72 1.06 331.25 1.06C328.58 1.06 326.39 1.91 324.68 3.62C322.97 5.34 322.12 7.53 322.12 10.19C322.12 13.9 322.12 32.44 322.12 65.82C280.35 30.9 257.14 11.5 252.5 7.62C246.42 2.67 239.19 0.2 230.82 0.2C222.45 0.2 215.22 2.67 209.13 7.62C188.62 24.71 24.5 161.44 3.98 178.53C2.08 180.05 1.04 182.09 0.84 184.66C0.65 187.23 1.32 189.47 2.84 191.37C4.61 193.48 18.76 210.37 20.53 212.48C22.05 214.19 24.05 215.24 26.52 215.62C28.81 215.81 31.09 215.15 33.37 213.62C46.54 202.65 112.35 147.77 230.81 48.99C349.28 147.77 415.09 202.65 428.25 213.62C429.78 214.95 431.77 215.61 434.25 215.61C434.33 215.61 435.02 215.61 435.1 215.61C437.57 215.24 439.56 214.18 441.1 212.48C442.87 210.37 457.02 193.48 458.79 191.37C460.31 189.46 460.98 187.22 460.78 184.65C460.58 182.09 459.54 180.05 457.64 178.53C449.31 171.6 428.48 154.29 395.16 126.6Z" id="dUTmWKbYv"></path></defs><g><g><use xlink:href="#a2AadbN45" opacity="1" fill="#ffffff" fill-opacity="1"></use><g><use xlink:href="#a2AadbN45" opacity="1" fill-opacity="0" stroke="#000000" stroke-width="1" stroke-opacity="0"></use></g></g><g><use xlink:href="#dUTmWKbYv" opacity="1" fill="#ffffff" fill-opacity="1"></use><g><use xlink:href="#dUTmWKbYv" opacity="1" fill-opacity="0" stroke="#000000" stroke-width="1" stroke-opacity="0"></use></g></g></g></svg>